<svg width="19" height="18" viewBox="0 0 19 18" fill="none" xmlns="http://www.w3.org/2000/svg">
<path d="M10.75 6.1875C10.75 6.00208 10.805 5.82082 10.908 5.66665C11.011 5.51248 11.1574 5.39232 11.3287 5.32136C11.5 5.2504 11.6885 5.23184 11.8704 5.26801C12.0523 5.30418 12.2193 5.39347 12.3504 5.52458C12.4815 5.6557 12.5708 5.82274 12.607 6.0046C12.6432 6.18646 12.6246 6.37496 12.5536 6.54626C12.4827 6.71757 12.3625 6.86399 12.2083 6.967C12.0542 7.07001 11.8729 7.125 11.6875 7.125C11.4389 7.125 11.2004 7.02622 11.0246 6.85041C10.8488 6.67459 10.75 6.43614 10.75 6.1875ZM7.3125 5.25C7.12708 5.25 6.94582 5.30498 6.79165 5.40799C6.63748 5.51101 6.51732 5.65742 6.44636 5.82873C6.37541 6.00004 6.35684 6.18854 6.39301 6.37039C6.42919 6.55225 6.51848 6.7193 6.64959 6.85041C6.7807 6.98152 6.94775 7.07081 7.1296 7.10698C7.31146 7.14316 7.49996 7.12459 7.67127 7.05363C7.84257 6.98268 7.98899 6.86251 8.092 6.70834C8.19502 6.55417 8.25 6.37292 8.25 6.1875C8.25 5.93886 8.15123 5.7004 7.97541 5.52458C7.7996 5.34877 7.56114 5.25 7.3125 5.25ZM16.375 10.25C16.3767 10.8567 16.2979 11.4609 16.1406 12.0469L17.8781 12.8062C18.0076 12.8652 18.113 12.9665 18.1771 13.0935C18.2411 13.2205 18.26 13.3655 18.2305 13.5047C18.201 13.6438 18.1249 13.7687 18.0148 13.8588C17.9047 13.9488 17.7672 13.9986 17.625 14C17.5389 14.0002 17.4538 13.9824 17.375 13.9477L15.7016 13.2187C15.1417 14.3887 14.2623 15.3765 13.165 16.0679C12.0676 16.7593 10.797 17.1262 9.5 17.1262C8.20297 17.1262 6.93241 16.7593 5.83504 16.0679C4.73768 15.3765 3.85829 14.3887 3.29844 13.2187L1.625 13.9477C1.54624 13.9824 1.46107 14.0002 1.375 14C1.23148 13.9999 1.09236 13.9504 0.98102 13.8599C0.869677 13.7693 0.792893 13.6432 0.763566 13.5027C0.73424 13.3622 0.754159 13.2159 0.819976 13.0884C0.885794 12.9608 0.9935 12.8598 1.125 12.8023L2.85938 12.0469C2.70209 11.4609 2.62328 10.8567 2.625 10.25V9.625H0.75C0.58424 9.625 0.425268 9.55915 0.308058 9.44194C0.190848 9.32473 0.125 9.16576 0.125 9C0.125 8.83424 0.190848 8.67526 0.308058 8.55805C0.425268 8.44084 0.58424 8.375 0.75 8.375H2.625V7.75C2.62328 7.14331 2.70209 6.53907 2.85938 5.95312L1.125 5.19765C1.048 5.16604 0.978092 5.11937 0.919377 5.06037C0.860661 5.00137 0.814321 4.93124 0.783077 4.85409C0.751832 4.77694 0.736313 4.69433 0.737429 4.6111C0.738546 4.52787 0.756276 4.44571 0.789578 4.36942C0.82288 4.29314 0.871084 4.22428 0.931361 4.16688C0.991638 4.10948 1.06277 4.06469 1.14059 4.03516C1.21841 4.00562 1.30135 3.99193 1.38453 3.99488C1.46771 3.99783 1.54947 4.01736 1.625 4.05234L3.29844 4.78125C3.85829 3.61127 4.73768 2.62353 5.83504 1.9321C6.93241 1.24068 8.20297 0.873779 9.5 0.873779C10.797 0.873779 12.0676 1.24068 13.165 1.9321C14.2623 2.62353 15.1417 3.61127 15.7016 4.78125L17.375 4.05C17.5261 3.98795 17.6956 3.98754 17.847 4.04887C17.9984 4.1102 18.1198 4.22838 18.1852 4.3781C18.2505 4.52783 18.2547 4.6972 18.1967 4.84995C18.1387 5.00269 18.0233 5.12666 17.875 5.19531L16.1406 5.95703C16.2979 6.54298 16.3767 7.14721 16.375 7.7539V8.3789H18.25C18.4158 8.3789 18.5747 8.44475 18.6919 8.56196C18.8092 8.67917 18.875 8.83814 18.875 9.0039C18.875 9.16966 18.8092 9.32863 18.6919 9.44584C18.5747 9.56305 18.4158 9.6289 18.25 9.6289H16.375V10.25ZM3.875 8.375H15.125V7.75C15.125 6.25815 14.5324 4.82741 13.4775 3.77252C12.4226 2.71763 10.9918 2.125 9.5 2.125C8.00816 2.125 6.57742 2.71763 5.52252 3.77252C4.46763 4.82741 3.875 6.25815 3.875 7.75V8.375ZM8.875 15.8391V9.625H3.875V10.25C3.87664 11.633 4.3872 12.9671 5.30933 13.9979C6.23146 15.0286 7.50067 15.684 8.875 15.8391ZM15.125 10.25V9.625H10.125V15.8391C11.4993 15.684 12.7685 15.0286 13.6907 13.9979C14.6128 12.9671 15.1234 11.633 15.125 10.25Z" fill="#000212"/>
</svg>
