<svg width="18" height="14" viewBox="0 0 18 14" fill="none" xmlns="http://www.w3.org/2000/svg">
<path d="M17.5312 8.86491C17.4791 8.71926 17.4177 8.57705 17.3477 8.43913L14.0984 1.04694C14.0677 0.97574 14.0237 0.911047 13.9688 0.856312C13.7366 0.624105 13.461 0.439905 13.1576 0.314233C12.8543 0.18856 12.5291 0.123877 12.2008 0.123877C11.8724 0.123877 11.5473 0.18856 11.2439 0.314233C10.9406 0.439905 10.665 0.624105 10.4328 0.856312C10.316 0.97324 10.2503 1.13167 10.25 1.29694V3.25006H7.75V1.29694C7.75007 1.21484 7.73395 1.13353 7.70259 1.05766C7.67122 0.981784 7.62521 0.912835 7.56719 0.854749C7.33503 0.622543 7.05941 0.438343 6.75606 0.31267C6.45271 0.186998 6.12757 0.122314 5.79922 0.122314C5.47087 0.122314 5.14573 0.186998 4.84238 0.31267C4.53903 0.438343 4.2634 0.622543 4.03125 0.854749C3.97631 0.909484 3.9323 0.974178 3.90156 1.04537L0.652344 8.43756C0.582256 8.57549 0.520936 8.7177 0.46875 8.86334C0.284766 9.37814 0.215562 9.92693 0.265987 10.4713C0.316411 11.0156 0.485245 11.5424 0.76066 12.0146C1.03608 12.4869 1.41141 12.8932 1.86038 13.2051C2.30934 13.517 2.82107 13.727 3.35973 13.8203C3.89839 13.9137 4.45094 13.8881 4.97867 13.7454C5.50641 13.6028 5.99657 13.3464 6.41482 12.9944C6.83307 12.6424 7.16929 12.2031 7.39993 11.7075C7.63057 11.2118 7.75005 10.6717 7.75 10.1251V4.50006H10.25V10.1251C10.2497 10.6718 10.369 11.212 10.5995 11.7078C10.83 12.2036 11.1661 12.643 11.5843 12.9952C12.0025 13.3474 12.4926 13.6039 13.0204 13.7467C13.5481 13.8896 14.1008 13.9153 14.6395 13.822C15.1782 13.7288 15.6901 13.5189 16.1391 13.207C16.5882 12.8951 16.9636 12.4888 17.2391 12.0165C17.5146 11.5443 17.6835 11.0175 17.734 10.473C17.7845 9.92863 17.7153 9.37976 17.5312 8.86491ZM4.99297 1.66803C5.20134 1.49258 5.46133 1.39 5.73337 1.3759C6.0054 1.36179 6.2746 1.43694 6.5 1.58991V7.33287C6.01203 6.89471 5.41748 6.59248 4.77592 6.45646C4.13436 6.32044 3.46832 6.35541 2.84453 6.55787L4.99297 1.66803ZM4 12.6251C3.50555 12.6251 3.0222 12.4784 2.61107 12.2037C2.19995 11.929 1.87952 11.5386 1.6903 11.0818C1.50108 10.625 1.45157 10.1223 1.54804 9.63734C1.6445 9.15238 1.8826 8.70693 2.23223 8.3573C2.58186 8.00766 3.02732 7.76956 3.51227 7.6731C3.99723 7.57664 4.49989 7.62614 4.95671 7.81536C5.41352 8.00458 5.80397 8.32501 6.07867 8.73614C6.35338 9.14726 6.5 9.63061 6.5 10.1251C6.5 10.7881 6.23661 11.424 5.76777 11.8928C5.29893 12.3617 4.66304 12.6251 4 12.6251ZM11.5 1.58912C11.7254 1.43616 11.9946 1.36101 12.2666 1.37511C12.5387 1.38922 12.7987 1.4918 13.007 1.66725L15.1555 6.55631C14.5316 6.35395 13.8655 6.31911 13.224 6.45526C12.5824 6.59142 11.9879 6.8938 11.5 7.33209V1.58912ZM14 12.6251C13.5055 12.6251 13.0222 12.4784 12.6111 12.2037C12.2 11.929 11.8795 11.5386 11.6903 11.0818C11.5011 10.625 11.4516 10.1223 11.548 9.63734C11.6445 9.15238 11.8826 8.70693 12.2322 8.3573C12.5819 8.00766 13.0273 7.76956 13.5123 7.6731C13.9972 7.57664 14.4999 7.62614 14.9567 7.81536C15.4135 8.00458 15.804 8.32501 16.0787 8.73614C16.3534 9.14726 16.5 9.63061 16.5 10.1251C16.5 10.7881 16.2366 11.424 15.7678 11.8928C15.2989 12.3617 14.663 12.6251 14 12.6251Z" fill="#000212"/>
</svg>
