<svg width="11" height="11" viewBox="0 0 11 11" fill="none" xmlns="http://www.w3.org/2000/svg">
<path d="M6.33335 1.16675C6.33335 0.890606 6.1095 0.666748 5.83335 0.666748C5.55721 0.666748 5.33335 0.890606 5.33335 1.16675V5.33341H1.16669C0.890545 5.33341 0.666687 5.55727 0.666687 5.83341C0.666687 6.10956 0.890545 6.33341 1.16669 6.33341H5.33335V10.5001C5.33335 10.7762 5.55721 11.0001 5.83335 11.0001C6.1095 11.0001 6.33335 10.7762 6.33335 10.5001V6.33341H10.5C10.7762 6.33341 11 6.10956 11 5.83341C11 5.55727 10.7762 5.33341 10.5 5.33341H6.33335V1.16675Z" fill="#3D3DB8"/>
</svg>
