<svg width="22" height="20" viewBox="0 0 22 20" fill="none" xmlns="http://www.w3.org/2000/svg">
<path d="M11 5.49998C10.11 5.49998 9.23995 5.7639 8.49993 6.25837C7.75991 6.75284 7.18313 7.45564 6.84254 8.27791C6.50194 9.10017 6.41283 10.005 6.58646 10.8779C6.7601 11.7508 7.18868 12.5526 7.81801 13.182C8.44735 13.8113 9.24917 14.2399 10.1221 14.4135C10.995 14.5871 11.8998 14.498 12.7221 14.1574C13.5443 13.8168 14.2471 13.2401 14.7416 12.5C15.2361 11.76 15.5 10.89 15.5 9.99998C15.4988 8.80689 15.0243 7.66302 14.1806 6.81937C13.337 5.97573 12.1931 5.50122 11 5.49998ZM11 13C10.4067 13 9.82663 12.824 9.33328 12.4944C8.83994 12.1647 8.45542 11.6962 8.22836 11.148C8.00129 10.5999 7.94188 9.99665 8.05764 9.41471C8.17339 8.83277 8.45912 8.29822 8.87867 7.87866C9.29823 7.4591 9.83278 7.17338 10.4147 7.05763C10.9967 6.94187 11.5999 7.00128 12.148 7.22834C12.6962 7.45541 13.1648 7.83992 13.4944 8.33327C13.824 8.82662 14 9.40664 14 9.99998C14 10.7956 13.6839 11.5587 13.1213 12.1213C12.5587 12.6839 11.7956 13 11 13ZM21.3069 8.05092C21.286 7.94531 21.2426 7.84543 21.1797 7.75807C21.1167 7.67072 21.0357 7.59793 20.9422 7.54467L18.1456 5.95092L18.1344 2.79904C18.134 2.6905 18.1101 2.58331 18.0643 2.4849C18.0185 2.38649 17.9519 2.29919 17.8691 2.22904C16.8546 1.37095 15.6864 0.713357 14.4266 0.291232C14.3273 0.257651 14.2222 0.245223 14.1179 0.25475C14.0136 0.264276 13.9124 0.295546 13.8209 0.346545L11 1.92342L8.17624 0.343732C8.0847 0.292446 7.98341 0.260941 7.87893 0.251251C7.77445 0.241562 7.6691 0.253905 7.56968 0.287482C6.31076 0.712692 5.14389 1.37279 4.13093 2.23279C4.04822 2.30284 3.98166 2.38999 3.93586 2.48823C3.89006 2.58647 3.8661 2.69347 3.86562 2.80186L3.85156 5.95654L1.055 7.55029C0.961434 7.60356 0.880437 7.67634 0.817509 7.7637C0.754582 7.85105 0.711198 7.95093 0.690308 8.05654C0.434367 9.34268 0.434367 10.6667 0.690308 11.9528C0.711198 12.0584 0.754582 12.1583 0.817509 12.2456C0.880437 12.333 0.961434 12.4058 1.055 12.459L3.85156 14.0528L3.86281 17.2047C3.86315 17.3132 3.88705 17.4204 3.93285 17.5188C3.97866 17.6172 4.04528 17.7045 4.12812 17.7747C5.14256 18.6328 6.31077 19.2904 7.57062 19.7125C7.66983 19.7461 7.77498 19.7585 7.87929 19.749C7.9836 19.7394 8.08476 19.7082 8.17624 19.6572L11 18.0765L13.8237 19.6562C13.9355 19.7185 14.0615 19.7508 14.1894 19.75C14.2713 19.75 14.3526 19.7367 14.4303 19.7106C15.6891 19.286 16.8559 18.6265 17.8691 17.7672C17.9518 17.6971 18.0183 17.61 18.0641 17.5117C18.1099 17.4135 18.1339 17.3065 18.1344 17.1981L18.1484 14.0434L20.945 12.4497C21.0386 12.3964 21.1196 12.3236 21.1825 12.2363C21.2454 12.1489 21.2888 12.049 21.3097 11.9434C21.5642 10.6583 21.5632 9.33566 21.3069 8.05092ZM19.9006 11.3237L17.2222 12.8472C17.1048 12.9139 17.0077 13.0111 16.9409 13.1284C16.8866 13.2222 16.8294 13.3215 16.7712 13.4153C16.6968 13.5335 16.6572 13.6703 16.6569 13.81L16.6428 16.8334C15.9229 17.3988 15.1208 17.8509 14.2644 18.174L11.5625 16.6684C11.4503 16.6064 11.3241 16.5741 11.1959 16.5747H11.1781C11.0647 16.5747 10.9503 16.5747 10.8369 16.5747C10.7027 16.5713 10.5701 16.6037 10.4525 16.6684L7.74874 18.1778C6.89047 17.8571 6.0862 17.4072 5.36375 16.8437L5.35343 13.825C5.35297 13.685 5.31335 13.548 5.23906 13.4294C5.18093 13.3356 5.12375 13.2419 5.07031 13.1425C5.00405 13.0233 4.90689 12.9242 4.78906 12.8556L2.10781 11.3284C1.96906 10.4507 1.96906 9.55672 2.10781 8.67904L4.78156 7.15279C4.89891 7.08607 4.99608 6.9889 5.06281 6.87154C5.11718 6.77779 5.17437 6.67842 5.2325 6.58467C5.3069 6.46644 5.34653 6.32967 5.34687 6.18998L5.36093 3.16654C6.08087 2.60118 6.88293 2.14909 7.73937 1.82592L10.4375 3.33154C10.5549 3.39663 10.6877 3.42901 10.8219 3.42529C10.9353 3.42529 11.0497 3.42529 11.1631 3.42529C11.2973 3.42865 11.4299 3.39629 11.5475 3.33154L14.2512 1.82217C15.1095 2.14286 15.9138 2.59274 16.6362 3.15623L16.6466 6.17498C16.647 6.31495 16.6866 6.45199 16.7609 6.57061C16.8191 6.66436 16.8762 6.75811 16.9297 6.85748C16.9959 6.97665 17.0931 7.07575 17.2109 7.14436L19.8922 8.67155C20.0328 9.54989 20.0344 10.4449 19.8969 11.3237H19.9006Z" fill="white"/>
</svg>
